<svg viewBox="0 0 12 12" width="60px" height="60px" xmlns="http://www.w3.org/2000/svg"><path fill-rule="evenodd" d="M 1,0 4,0 4,2 8,2 8,0 11,0 11,4 12,4 12,7 11,7 11,12 1,12 1,7 0,7 0,4 1,4z" fill="#43BF4D"/><path fill-rule="evenodd" d="M 2,1 3,1 3,2 2,2z" fill="#ffffff"/><path fill-rule="evenodd" d="M 9,1 10,1 10,2 9,2z" fill="#ffffff"/><path fill-rule="evenodd" d="M 2,3 4,3 4,5 3,5 3,4 2,4z" fill="#ffffff"/><path fill-rule="evenodd" d="M 5,3 7,3 7,5 8,5 8,6 4,6 4,5 5,5z" fill="#ffffff"/><path fill-rule="evenodd" d="M 8,3 10,3 10,4 9,4 9,5 8,5z" fill="#ffffff"/><path fill-rule="evenodd" d="M 1,5 2,5 2,6 1,6z" fill="#ffffff"/><path fill-rule="evenodd" d="M 10,5 11,5 11,6 10,6z" fill="#ffffff"/><path fill-rule="evenodd" d="M 3,6 4,6 4,8 2,8 2,7 3,7z" fill="#ffffff"/><path fill-rule="evenodd" d="M 8,6 9,6 9,7 10,7 10,8 8,8z" fill="#ffffff"/><path fill-rule="evenodd" d="M 5,7 7,7 7,8 5,8z" fill="#ffffff"/><path fill-rule="evenodd" d="M 4,8 5,8 5,9 4,9z" fill="#ffffff"/><path fill-rule="evenodd" d="M 7,8 8,8 8,9 7,9z" fill="#ffffff"/><path fill-rule="evenodd" d="M 2,9 3,9 3,10 9,10 9,9 10,9 10,11 2,11z" fill="#ffffff"/></svg>